<mxfile host="app.diagrams.net" modified="2021-07-06T00:54:15.670Z" agent="5.0 (Macintosh; Intel Mac OS X 10_15_7) AppleWebKit/605.1.15 (KHTML, like Gecko) Version/14.1.1 Safari/605.1.15" etag="Cq2hyTFLEr9b8nGI2cKd" version="14.8.4" type="github">
  <diagram id="qFqPaxt84j7U-PXWmILb" name="Page-1">
    <mxGraphModel dx="946" dy="645" grid="1" gridSize="10" guides="1" tooltips="1" connect="1" arrows="1" fold="1" page="1" pageScale="1" pageWidth="827" pageHeight="1169" math="0" shadow="0">
      <root>
        <mxCell id="0" />
        <mxCell id="1" parent="0" />
        <mxCell id="aQGxSlsHaq3K5OFzLRpE-9" style="edgeStyle=orthogonalEdgeStyle;rounded=0;orthogonalLoop=1;jettySize=auto;html=1;entryX=0;entryY=0.5;entryDx=0;entryDy=0;dashed=1;endArrow=block;endFill=0;" edge="1" parent="1" source="aQGxSlsHaq3K5OFzLRpE-1" target="aQGxSlsHaq3K5OFzLRpE-2">
          <mxGeometry relative="1" as="geometry" />
        </mxCell>
        <mxCell id="aQGxSlsHaq3K5OFzLRpE-1" value="Actor" style="shape=umlActor;verticalLabelPosition=bottom;verticalAlign=top;html=1;" vertex="1" parent="1">
          <mxGeometry x="140" y="210" width="30" height="60" as="geometry" />
        </mxCell>
        <mxCell id="aQGxSlsHaq3K5OFzLRpE-10" style="edgeStyle=orthogonalEdgeStyle;rounded=0;orthogonalLoop=1;jettySize=auto;html=1;endArrow=classic;endFill=1;" edge="1" parent="1" source="aQGxSlsHaq3K5OFzLRpE-2">
          <mxGeometry relative="1" as="geometry">
            <mxPoint x="460" y="304" as="targetPoint" />
          </mxGeometry>
        </mxCell>
        <mxCell id="aQGxSlsHaq3K5OFzLRpE-11" style="edgeStyle=orthogonalEdgeStyle;rounded=0;orthogonalLoop=1;jettySize=auto;html=1;endArrow=classic;endFill=1;" edge="1" parent="1" source="aQGxSlsHaq3K5OFzLRpE-2" target="aQGxSlsHaq3K5OFzLRpE-4">
          <mxGeometry relative="1" as="geometry" />
        </mxCell>
        <mxCell id="aQGxSlsHaq3K5OFzLRpE-2" value="&lt;p style=&quot;margin: 0px ; margin-top: 4px ; text-align: center&quot;&gt;&lt;br&gt;&lt;b&gt;SimpleFactory&lt;/b&gt;&lt;/p&gt;&lt;p style=&quot;margin: 0px ; margin-top: 4px ; text-align: center&quot;&gt;&lt;b&gt;createProduct（）&lt;/b&gt;&lt;/p&gt;" style="verticalAlign=top;align=left;overflow=fill;fontSize=12;fontFamily=Helvetica;html=1;" vertex="1" parent="1">
          <mxGeometry x="220" y="400" width="140" height="60" as="geometry" />
        </mxCell>
        <mxCell id="aQGxSlsHaq3K5OFzLRpE-7" style="edgeStyle=orthogonalEdgeStyle;rounded=0;orthogonalLoop=1;jettySize=auto;html=1;exitX=0.5;exitY=0;exitDx=0;exitDy=0;entryX=0.5;entryY=1;entryDx=0;entryDy=0;dashed=1;endArrow=block;endFill=0;" edge="1" parent="1" source="aQGxSlsHaq3K5OFzLRpE-3" target="aQGxSlsHaq3K5OFzLRpE-6">
          <mxGeometry relative="1" as="geometry" />
        </mxCell>
        <mxCell id="aQGxSlsHaq3K5OFzLRpE-3" value="&lt;p style=&quot;margin: 0px ; margin-top: 4px ; text-align: center&quot;&gt;&lt;br&gt;&lt;b&gt;ProductImplA&lt;/b&gt;&lt;/p&gt;" style="verticalAlign=top;align=left;overflow=fill;fontSize=12;fontFamily=Helvetica;html=1;" vertex="1" parent="1">
          <mxGeometry x="390" y="240" width="140" height="60" as="geometry" />
        </mxCell>
        <mxCell id="aQGxSlsHaq3K5OFzLRpE-8" style="edgeStyle=orthogonalEdgeStyle;rounded=0;orthogonalLoop=1;jettySize=auto;html=1;dashed=1;endArrow=block;endFill=0;" edge="1" parent="1" source="aQGxSlsHaq3K5OFzLRpE-4" target="aQGxSlsHaq3K5OFzLRpE-6">
          <mxGeometry relative="1" as="geometry" />
        </mxCell>
        <mxCell id="aQGxSlsHaq3K5OFzLRpE-4" value="&lt;p style=&quot;margin: 0px ; margin-top: 4px ; text-align: center&quot;&gt;&lt;br&gt;&lt;b&gt;ProductImplB&lt;/b&gt;&lt;/p&gt;" style="verticalAlign=top;align=left;overflow=fill;fontSize=12;fontFamily=Helvetica;html=1;" vertex="1" parent="1">
          <mxGeometry x="580" y="240" width="140" height="60" as="geometry" />
        </mxCell>
        <mxCell id="aQGxSlsHaq3K5OFzLRpE-6" value="«interface»&lt;br&gt;&lt;b&gt;Product&lt;/b&gt;" style="html=1;" vertex="1" parent="1">
          <mxGeometry x="510" y="90" width="110" height="50" as="geometry" />
        </mxCell>
      </root>
    </mxGraphModel>
  </diagram>
</mxfile>
